<svg width="20" height="48" viewBox="0 0 20 48" fill="none" xmlns="http://www.w3.org/2000/svg">
<mask id="path-1-inside-1_48_271" fill="white">
<path fill-rule="evenodd" clip-rule="evenodd" d="M9.5 5.59549L9.5 48L10.5 48L10.5 5.59072C13.4613 5.69746 16.7307 6.89414 20 10L10 -8.74228e-07L0.438919 9.56108C0.28305 9.70913 0.136602 9.85581 3.32207e-06 10L0.438919 9.56108C2.32805 7.76679 5.60121 5.77247 9.5 5.59549Z"/>
</mask>
<path fill-rule="evenodd" clip-rule="evenodd" d="M9.5 5.59549L9.5 48L10.5 48L10.5 5.59072C13.4613 5.69746 16.7307 6.89414 20 10L10 -8.74228e-07L0.438919 9.56108C0.28305 9.70913 0.136602 9.85581 3.32207e-06 10L0.438919 9.56108C2.32805 7.76679 5.60121 5.77247 9.5 5.59549Z" fill="#A1BD74"/>
<path d="M9.5 48L8.5 48L8.5 49L9.5 49L9.5 48ZM9.5 5.59549L10.5 5.59549L10.5 4.54906L9.45466 4.59652L9.5 5.59549ZM10.5 48L10.5 49L11.5 49L11.5 48L10.5 48ZM10.5 5.59072L10.536 4.59137L9.5 4.55403L9.5 5.59072L10.5 5.59072ZM20 10L19.3113 10.725L20.7071 9.29289L20 10ZM10 -8.74228e-07L10.7071 -0.707108L10 -1.41422L9.2929 -0.707108L10 -8.74228e-07ZM3.32207e-06 10L-0.725951 9.31225L0.707111 10.7071L3.32207e-06 10ZM10.5 48L10.5 5.59549L8.5 5.59549L8.5 48L10.5 48ZM10.5 47L9.5 47L9.5 49L10.5 49L10.5 47ZM9.5 5.59072L9.5 48L11.5 48L11.5 5.59072L9.5 5.59072ZM20.6888 9.275C17.2592 6.01697 13.7631 4.70768 10.536 4.59137L10.464 6.59008C13.1596 6.68723 16.2021 7.7713 19.3113 10.725L20.6888 9.275ZM9.2929 0.707107L19.2929 10.7071L20.7071 9.29289L10.7071 -0.707108L9.2929 0.707107ZM1.14603 10.2682L10.7071 0.707107L9.2929 -0.707108L-0.268189 8.85398L1.14603 10.2682ZM0.725957 10.6877C0.850059 10.5567 0.984046 10.4225 1.12759 10.2862L-0.249756 8.83601C-0.417946 8.99576 -0.576855 9.15487 -0.725951 9.31225L0.725957 10.6877ZM-0.268189 8.85398L-0.707104 9.29289L0.707111 10.7071L1.14603 10.2682L-0.268189 8.85398ZM9.45466 4.59652C5.25211 4.78728 1.76163 6.9256 -0.249754 8.83601L1.12759 10.2862C2.89446 8.60798 5.95032 6.75765 9.54535 6.59446L9.45466 4.59652Z" fill="#A1BD74" mask="url(#path-1-inside-1_48_271)"/>
</svg>
