<svg width="20" height="48" viewBox="0 0 20 48" fill="none" xmlns="http://www.w3.org/2000/svg">
<mask id="path-1-inside-1_48_156" fill="white">
<path fill-rule="evenodd" clip-rule="evenodd" d="M10.5 42.4045L10.5 0H9.5L9.5 42.4093C6.53865 42.3025 3.26933 41.1059 0 38L10 48L19.5611 38.4389C19.717 38.2909 19.8634 38.1442 20 38L19.5611 38.4389C17.672 40.2332 14.3988 42.2275 10.5 42.4045Z"/>
</mask>
<path fill-rule="evenodd" clip-rule="evenodd" d="M10.5 42.4045L10.5 0H9.5L9.5 42.4093C6.53865 42.3025 3.26933 41.1059 0 38L10 48L19.5611 38.4389C19.717 38.2909 19.8634 38.1442 20 38L19.5611 38.4389C17.672 40.2332 14.3988 42.2275 10.5 42.4045Z" fill="#383533"/>
<path d="M10.5 0L11.5 -4.49799e-08V-1H10.5V0ZM10.5 42.4045H9.5V43.4509L10.5453 43.4035L10.5 42.4045ZM9.5 0V-1H8.5V4.49748e-08L9.5 0ZM9.5 42.4093L9.46398 43.4086L10.5 43.446V42.4093H9.5ZM0 38L0.68875 37.275L-0.707107 38.7071L0 38ZM10 48L9.29289 48.7071L10 49.4142L10.7071 48.7071L10 48ZM20 38L20.726 38.6877L19.2929 37.2929L20 38ZM9.5 4.49799e-08L9.5 42.4045H11.5L11.5 -4.49799e-08L9.5 4.49799e-08ZM9.5 1H10.5V-1H9.5V1ZM10.5 42.4093L10.5 -4.49748e-08L8.5 4.49748e-08L8.5 42.4093H10.5ZM-0.68875 38.725C2.74076 41.983 6.23686 43.2923 9.46398 43.4086L9.53602 41.4099C6.84045 41.3128 3.7979 40.2287 0.68875 37.275L-0.68875 38.725ZM10.7071 47.2929L0.707107 37.2929L-0.707107 38.7071L9.29289 48.7071L10.7071 47.2929ZM18.854 37.7318L9.29289 47.2929L10.7071 48.7071L20.2682 39.146L18.854 37.7318ZM19.274 37.3123C19.1499 37.4433 19.016 37.5775 18.8724 37.7138L20.2498 39.164C20.4179 39.0042 20.5769 38.8451 20.726 38.6877L19.274 37.3123ZM20.2682 39.146L20.7071 38.7071L19.2929 37.2929L18.854 37.7318L20.2682 39.146ZM10.5453 43.4035C14.7479 43.2127 18.2384 41.0744 20.2498 39.164L18.8724 37.7138C17.1055 39.392 14.0497 41.2423 10.4547 41.4055L10.5453 43.4035Z" fill="#383533" mask="url(#path-1-inside-1_48_156)"/>
</svg>
