<svg width="22" height="22" viewBox="0 0 22 22" fill="none" xmlns="http://www.w3.org/2000/svg">
<path d="M7.35827 10.9997C7.35827 8.98918 8.98866 7.35889 11.0004 7.35889C13.0121 7.35889 14.6434 8.98918 14.6434 10.9997C14.6434 13.0102 13.0121 14.6405 11.0004 14.6405C8.98866 14.6405 7.35827 13.0102 7.35827 10.9997ZM5.38894 10.9997C5.38894 14.0971 7.90118 16.6078 11.0004 16.6078C14.0996 16.6078 16.6119 14.0971 16.6119 10.9997C16.6119 7.90235 14.0996 5.39161 11.0004 5.39161C7.90118 5.39161 5.38894 7.90235 5.38894 10.9997ZM15.5226 5.16924C15.5225 5.42845 15.5993 5.68187 15.7434 5.89746C15.8874 6.11304 16.0921 6.2811 16.3317 6.38039C16.5713 6.47969 16.8349 6.50574 17.0893 6.45528C17.3437 6.40481 17.5775 6.28008 17.7609 6.09687C17.9444 5.91365 18.0694 5.68017 18.1201 5.42597C18.1708 5.17176 18.1449 4.90823 18.0458 4.66871C17.9466 4.42919 17.7786 4.22444 17.563 4.08034C17.3474 3.93625 17.0939 3.85928 16.8345 3.85918H16.834C16.4864 3.85934 16.153 3.9974 15.9071 4.24303C15.6612 4.48867 15.5229 4.82179 15.5226 5.16924ZM6.58544 19.8896C5.51999 19.8411 4.94088 19.6638 4.55604 19.5139C4.04582 19.3154 3.68179 19.079 3.29904 18.697C2.91629 18.315 2.67937 17.9515 2.48161 17.4416C2.33159 17.0572 2.15412 16.4782 2.10569 15.4134C2.05271 14.2622 2.04213 13.9164 2.04213 10.9998C2.04213 8.08321 2.05358 7.73835 2.10569 6.58617C2.15421 5.52136 2.33299 4.94356 2.48161 4.55798C2.68024 4.04808 2.91682 3.68426 3.29904 3.30174C3.68126 2.91922 4.04495 2.68244 4.55604 2.48481C4.94071 2.33487 5.51999 2.15751 6.58544 2.1091C7.73735 2.05616 8.08338 2.04558 11.0004 2.04558C13.9174 2.04558 14.2638 2.05703 15.4167 2.1091C16.4821 2.15759 17.0603 2.33627 17.4461 2.48481C17.9563 2.68244 18.3203 2.91975 18.7031 3.30174C19.0858 3.68373 19.3219 4.04808 19.5205 4.55798C19.6705 4.94242 19.848 5.52136 19.8964 6.58617C19.9494 7.73835 19.96 8.08321 19.96 10.9998C19.96 13.9164 19.9494 14.2612 19.8964 15.4134C19.8479 16.4782 19.6696 17.057 19.5205 17.4416C19.3219 17.9515 19.0853 18.3153 18.7031 18.697C18.3209 19.0786 17.9563 19.3154 17.4461 19.5139C17.0614 19.6638 16.4821 19.8412 15.4167 19.8896C14.2648 19.9426 13.9187 19.9531 11.0004 19.9531C8.08207 19.9531 7.737 19.9426 6.58544 19.8896ZM6.49495 0.144266C5.33158 0.197214 4.53663 0.38157 3.84239 0.651552C3.1234 0.930358 2.51475 1.3044 1.90653 1.91129C1.29832 2.51818 0.92501 3.12743 0.646037 3.84598C0.375893 4.54025 0.191426 5.33429 0.138446 6.49696C0.0845926 7.66146 0.0722656 8.03376 0.0722656 10.9997C0.0722656 13.9657 0.0845926 14.338 0.138446 15.5025C0.191426 16.6652 0.375893 17.4592 0.646037 18.1534C0.92501 18.8716 1.2984 19.4815 1.90653 20.0881C2.51466 20.6948 3.1234 21.0683 3.84239 21.3479C4.53794 21.6179 5.33158 21.8022 6.49495 21.8552C7.66076 21.9081 8.03267 21.9213 11.0004 21.9213C13.9681 21.9213 14.3407 21.909 15.5059 21.8552C16.6693 21.8022 17.4637 21.6179 18.1584 21.3479C18.877 21.0683 19.4861 20.695 20.0943 20.0881C20.7025 19.4812 21.075 18.8716 21.3548 18.1534C21.6249 17.4592 21.8103 16.6651 21.8624 15.5025C21.9153 14.3371 21.9277 13.9657 21.9277 10.9997C21.9277 8.03376 21.9153 7.66146 21.8624 6.49696C21.8094 5.3342 21.6249 4.53981 21.3548 3.84598C21.075 3.12787 20.7015 2.51914 20.0943 1.91129C19.487 1.30344 18.877 0.930358 18.1593 0.651552C17.4637 0.38157 16.6692 0.19634 15.5067 0.144266C14.3415 0.0913183 13.969 0.078125 11.0013 0.078125C8.03355 0.078125 7.66076 0.0904446 6.49495 0.144266Z" fill="#383533"/>
<path d="M7.35827 10.9997C7.35827 8.98918 8.98866 7.35889 11.0004 7.35889C13.0121 7.35889 14.6434 8.98918 14.6434 10.9997C14.6434 13.0102 13.0121 14.6405 11.0004 14.6405C8.98866 14.6405 7.35827 13.0102 7.35827 10.9997ZM5.38894 10.9997C5.38894 14.0971 7.90118 16.6078 11.0004 16.6078C14.0996 16.6078 16.6119 14.0971 16.6119 10.9997C16.6119 7.90235 14.0996 5.39161 11.0004 5.39161C7.90118 5.39161 5.38894 7.90235 5.38894 10.9997ZM15.5226 5.16924C15.5225 5.42845 15.5993 5.68187 15.7434 5.89746C15.8874 6.11304 16.0921 6.2811 16.3317 6.38039C16.5713 6.47969 16.8349 6.50574 17.0893 6.45528C17.3437 6.40481 17.5775 6.28008 17.7609 6.09687C17.9444 5.91365 18.0694 5.68017 18.1201 5.42597C18.1708 5.17176 18.1449 4.90823 18.0458 4.66871C17.9466 4.42919 17.7786 4.22444 17.563 4.08034C17.3474 3.93625 17.0939 3.85928 16.8345 3.85918H16.834C16.4864 3.85934 16.153 3.9974 15.9071 4.24303C15.6612 4.48867 15.5229 4.82179 15.5226 5.16924ZM6.58544 19.8896C5.51999 19.8411 4.94088 19.6638 4.55604 19.5139C4.04582 19.3154 3.68179 19.079 3.29904 18.697C2.91629 18.315 2.67937 17.9515 2.48161 17.4416C2.33159 17.0572 2.15412 16.4782 2.10569 15.4134C2.05271 14.2622 2.04213 13.9164 2.04213 10.9998C2.04213 8.08321 2.05358 7.73835 2.10569 6.58617C2.15421 5.52136 2.33299 4.94356 2.48161 4.55798C2.68024 4.04808 2.91682 3.68426 3.29904 3.30174C3.68126 2.91922 4.04495 2.68244 4.55604 2.48481C4.94071 2.33487 5.51999 2.15751 6.58544 2.1091C7.73735 2.05616 8.08338 2.04558 11.0004 2.04558C13.9174 2.04558 14.2638 2.05703 15.4167 2.1091C16.4821 2.15759 17.0603 2.33627 17.4461 2.48481C17.9563 2.68244 18.3203 2.91975 18.7031 3.30174C19.0858 3.68373 19.3219 4.04808 19.5205 4.55798C19.6705 4.94242 19.848 5.52136 19.8964 6.58617C19.9494 7.73835 19.96 8.08321 19.96 10.9998C19.96 13.9164 19.9494 14.2612 19.8964 15.4134C19.8479 16.4782 19.6696 17.057 19.5205 17.4416C19.3219 17.9515 19.0853 18.3153 18.7031 18.697C18.3209 19.0786 17.9563 19.3154 17.4461 19.5139C17.0614 19.6638 16.4821 19.8412 15.4167 19.8896C14.2648 19.9426 13.9187 19.9531 11.0004 19.9531C8.08207 19.9531 7.737 19.9426 6.58544 19.8896ZM6.49495 0.144266C5.33158 0.197214 4.53663 0.38157 3.84239 0.651552C3.1234 0.930358 2.51475 1.3044 1.90653 1.91129C1.29832 2.51818 0.92501 3.12743 0.646037 3.84598C0.375893 4.54025 0.191426 5.33429 0.138446 6.49696C0.0845926 7.66146 0.0722656 8.03376 0.0722656 10.9997C0.0722656 13.9657 0.0845926 14.338 0.138446 15.5025C0.191426 16.6652 0.375893 17.4592 0.646037 18.1534C0.92501 18.8716 1.2984 19.4815 1.90653 20.0881C2.51466 20.6948 3.1234 21.0683 3.84239 21.3479C4.53794 21.6179 5.33158 21.8022 6.49495 21.8552C7.66076 21.9081 8.03267 21.9213 11.0004 21.9213C13.9681 21.9213 14.3407 21.909 15.5059 21.8552C16.6693 21.8022 17.4637 21.6179 18.1584 21.3479C18.877 21.0683 19.4861 20.695 20.0943 20.0881C20.7025 19.4812 21.075 18.8716 21.3548 18.1534C21.6249 17.4592 21.8103 16.6651 21.8624 15.5025C21.9153 14.3371 21.9277 13.9657 21.9277 10.9997C21.9277 8.03376 21.9153 7.66146 21.8624 6.49696C21.8094 5.3342 21.6249 4.53981 21.3548 3.84598C21.075 3.12787 20.7015 2.51914 20.0943 1.91129C19.487 1.30344 18.877 0.930358 18.1593 0.651552C17.4637 0.38157 16.6692 0.19634 15.5067 0.144266C14.3415 0.0913183 13.969 0.078125 11.0013 0.078125C8.03355 0.078125 7.66076 0.0904446 6.49495 0.144266Z" fill="#383533"/>
</svg>
