<svg width="48" height="20" viewBox="0 0 48 20" fill="none" xmlns="http://www.w3.org/2000/svg">
<mask id="path-1-inside-1_853_60" fill="white">
<path fill-rule="evenodd" clip-rule="evenodd" d="M5.59549 10.5L48 10.5L48 9.5L5.59072 9.5C5.69746 6.53865 6.89414 3.26932 10 -5.47573e-06L-4.37114e-07 9.99999L9.56108 19.5611C9.70913 19.7169 9.85581 19.8634 10 20L9.56108 19.5611C7.76679 17.6719 5.77247 14.3988 5.59549 10.5Z"/>
</mask>
<path fill-rule="evenodd" clip-rule="evenodd" d="M5.59549 10.5L48 10.5L48 9.5L5.59072 9.5C5.69746 6.53865 6.89414 3.26932 10 -5.47573e-06L-4.37114e-07 9.99999L9.56108 19.5611C9.70913 19.7169 9.85581 19.8634 10 20L9.56108 19.5611C7.76679 17.6719 5.77247 14.3988 5.59549 10.5Z" fill="#CDCDCD"/>
<path d="M48 10.5L48 11.5L49 11.5L49 10.5L48 10.5ZM5.59549 10.5L5.59549 9.5L4.54906 9.5L4.59652 10.5453L5.59549 10.5ZM48 9.5L49 9.5L49 8.5L48 8.5L48 9.5ZM5.59072 9.5L4.59137 9.46398L4.55403 10.5L5.59072 10.5L5.59072 9.5ZM10 -5.47573e-06L10.725 0.688744L9.29289 -0.707112L10 -5.47573e-06ZM-4.37114e-07 9.99999L-0.707108 9.29289L-1.41422 9.99999L-0.707108 10.7071L-4.37114e-07 9.99999ZM10 20L9.31225 20.7259L10.7071 19.2929L10 20ZM48 9.5L5.59549 9.5L5.59549 11.5L48 11.5L48 9.5ZM47 9.5L47 10.5L49 10.5L49 9.5L47 9.5ZM5.59072 10.5L48 10.5L48 8.5L5.59072 8.5L5.59072 10.5ZM9.275 -0.688755C6.01697 2.74075 4.70768 6.23685 4.59137 9.46398L6.59008 9.53601C6.68723 6.84045 7.7713 3.79789 10.725 0.688744L9.275 -0.688755ZM0.707107 10.7071L10.7071 0.707101L9.29289 -0.707112L-0.707108 9.29289L0.707107 10.7071ZM10.2682 18.854L0.707107 9.29289L-0.707108 10.7071L8.85398 20.2682L10.2682 18.854ZM10.6877 19.274C10.5567 19.1499 10.4225 19.016 10.2862 18.8724L8.83601 20.2498C8.99576 20.4179 9.15488 20.5769 9.31225 20.7259L10.6877 19.274ZM8.85398 20.2682L9.29289 20.7071L10.7071 19.2929L10.2682 18.854L8.85398 20.2682ZM4.59652 10.5453C4.78728 14.7479 6.9256 18.2384 8.83601 20.2498L10.2862 18.8724C8.60798 17.1055 6.75765 14.0497 6.59446 10.4547L4.59652 10.5453Z" fill="#CDCDCD" mask="url(#path-1-inside-1_853_60)"/>
</svg>
