<svg width="24" height="16" viewBox="0 0 24 16" fill="none" xmlns="http://www.w3.org/2000/svg">
<path d="M23.1256 2.49818C22.8645 1.51636 22.0919 0.741818 21.109 0.476364C19.3317 1.73395e-07 12.2008 0 12.2008 0C12.2008 0 5.07351 1.73395e-07 3.2926 0.476364C2.31329 0.738182 1.54071 1.51273 1.27593 2.49818C0.800781 4.28 0.800781 8 0.800781 8C0.800781 8 0.800781 11.72 1.27593 13.5018C1.53708 14.4836 2.30966 15.2582 3.2926 15.5236C5.07351 16 12.2008 16 12.2008 16C12.2008 16 19.3317 16 21.109 15.5236C22.0883 15.2618 22.8609 14.4873 23.1256 13.5018C23.6008 11.72 23.6008 8 23.6008 8C23.6008 8 23.6008 4.28 23.1256 2.49818Z" fill="#383533"/>
<path d="M9.92296 11.4291L15.846 8L9.92296 4.57091V11.4291Z" fill="white"/>
</svg>
